# MagicaVoxel @ Ephtracy

# group
o 

# material
mtllib doorObject.mtl
usemtl palette

# normals
vn -1 0 0
vn 1 0 0
vn 0 0 1
vn 0 0 -1
vn 0 -1 0
vn 0 1 0

# texcoords
vt 0.318359 0.5
vt 0.369141 0.5
vt 0.564453 0.5
vt 0.974609 0.5

# verts
v 0.8 -3 3.4
v 0.8 -3 3
v 0.8 -1.8 3.4
v 0.8 -1.8 3
v 1.9 -3 3.4
v 1.9 -3 3.3
v 1.9 -3 3.2
v 1.9 -3 3
v 1.9 -1.9 3.4
v 1.9 -1.9 3.3
v 1.9 -1.9 3.2
v 1.9 -1.9 3
v 0.9 -3 3.4
v 0.9 -3 3.3
v 0.9 -3 3.2
v 0.9 -3 3
v 0.9 -1.9 3.4
v 0.9 -1.9 3.3
v 0.9 -1.9 3.2
v 0.9 -1.9 3
v 2 -3 3.4
v 2 -3 3
v 2 -1.8 3.4
v 2 -1.8 3
v 0.8 -3 3.4
v 0.8 -1.8 3.4
v 0.9 -3 3.4
v 0.9 -1.9 3.4
v 1.9 -3 3.4
v 1.9 -1.9 3.4
v 2 -3 3.4
v 2 -1.8 3.4
v 0.9 -3 3.3
v 0.9 -1.9 3.3
v 1 -2.6 3.3
v 1 -2.5 3.3
v 1.1 -2.6 3.3
v 1.1 -2.5 3.3
v 1.5 -2.8 3.3
v 1.5 -2.2 3.3
v 1.7 -2.8 3.3
v 1.7 -2.2 3.3
v 1.9 -3 3.3
v 1.9 -1.9 3.3
v 0.9 -3 3.2
v 0.9 -1.9 3.2
v 1 -2.6 3.2
v 1 -2.5 3.2
v 1.1 -2.6 3.2
v 1.1 -2.5 3.2
v 1.5 -2.8 3.2
v 1.5 -2.2 3.2
v 1.7 -2.8 3.2
v 1.7 -2.2 3.2
v 1.9 -3 3.2
v 1.9 -1.9 3.2
v 0.8 -3 3
v 0.8 -1.8 3
v 0.9 -3 3
v 0.9 -1.9 3
v 1.9 -3 3
v 1.9 -1.9 3
v 2 -3 3
v 2 -1.8 3
v 0.8 -3 3.4
v 0.9 -3 3.4
v 1.9 -3 3.4
v 2 -3 3.4
v 0.9 -3 3.3
v 1.9 -3 3.3
v 0.9 -3 3.2
v 1.9 -3 3.2
v 0.8 -3 3
v 0.9 -3 3
v 1.9 -3 3
v 2 -3 3
v 0.9 -1.9 3.4
v 1.9 -1.9 3.4
v 0.9 -1.9 3.3
v 1.9 -1.9 3.3
v 0.9 -1.9 3.2
v 1.9 -1.9 3.2
v 0.9 -1.9 3
v 1.9 -1.9 3
v 0.8 -1.8 3.4
v 2 -1.8 3.4
v 0.8 -1.8 3
v 2 -1.8 3

# faces
f 3/4/1 2/4/1 1/4/1
f 4/4/1 2/4/1 3/4/1
f 9/4/1 6/4/1 5/4/1
f 10/4/1 6/4/1 9/4/1
f 11/4/1 8/4/1 7/4/1
f 12/4/1 8/4/1 11/4/1
f 13/4/2 14/4/2 17/4/2
f 17/4/2 14/4/2 18/4/2
f 15/4/2 16/4/2 19/4/2
f 19/4/2 16/4/2 20/4/2
f 21/4/2 22/4/2 23/4/2
f 23/4/2 22/4/2 24/4/2
f 27/4/3 26/4/3 25/4/3
f 28/4/3 26/4/3 27/4/3
f 30/4/3 26/4/3 28/4/3
f 31/4/3 30/4/3 29/4/3
f 32/4/3 26/4/3 30/4/3
f 32/4/3 30/4/3 31/4/3
f 35/1/3 34/1/3 33/1/3
f 36/1/3 34/1/3 35/1/3
f 37/1/3 35/1/3 33/1/3
f 37/2/3 36/2/3 35/2/3
f 38/1/3 34/1/3 36/1/3
f 38/2/3 36/2/3 37/2/3
f 39/1/3 37/1/3 33/1/3
f 39/1/3 38/1/3 37/1/3
f 40/1/3 34/1/3 38/1/3
f 40/1/3 38/1/3 39/1/3
f 41/1/3 39/1/3 33/1/3
f 41/3/3 40/3/3 39/3/3
f 42/1/3 34/1/3 40/1/3
f 42/3/3 40/3/3 41/3/3
f 43/1/3 41/1/3 33/1/3
f 43/1/3 42/1/3 41/1/3
f 44/1/3 34/1/3 42/1/3
f 44/1/3 42/1/3 43/1/3
f 45/1/4 46/1/4 47/1/4
f 47/1/4 46/1/4 48/1/4
f 45/1/4 47/1/4 49/1/4
f 47/2/4 48/2/4 49/2/4
f 48/1/4 46/1/4 50/1/4
f 49/2/4 48/2/4 50/2/4
f 45/1/4 49/1/4 51/1/4
f 49/1/4 50/1/4 51/1/4
f 50/1/4 46/1/4 52/1/4
f 51/1/4 50/1/4 52/1/4
f 45/1/4 51/1/4 53/1/4
f 51/3/4 52/3/4 53/3/4
f 52/1/4 46/1/4 54/1/4
f 53/3/4 52/3/4 54/3/4
f 45/1/4 53/1/4 55/1/4
f 53/1/4 54/1/4 55/1/4
f 54/1/4 46/1/4 56/1/4
f 55/1/4 54/1/4 56/1/4
f 57/4/4 58/4/4 59/4/4
f 59/4/4 58/4/4 60/4/4
f 60/4/4 58/4/4 62/4/4
f 61/4/4 62/4/4 63/4/4
f 62/4/4 58/4/4 64/4/4
f 63/4/4 62/4/4 64/4/4
f 69/4/5 66/4/5 65/4/5
f 70/4/5 68/4/5 67/4/5
f 71/4/5 69/4/5 65/4/5
f 71/1/5 70/1/5 69/1/5
f 72/4/5 68/4/5 70/4/5
f 72/1/5 70/1/5 71/1/5
f 73/4/5 71/4/5 65/4/5
f 74/4/5 71/4/5 73/4/5
f 75/4/5 68/4/5 72/4/5
f 76/4/5 68/4/5 75/4/5
f 79/4/5 78/4/5 77/4/5
f 80/4/5 78/4/5 79/4/5
f 83/4/5 82/4/5 81/4/5
f 84/4/5 82/4/5 83/4/5
f 85/4/6 86/4/6 87/4/6
f 87/4/6 86/4/6 88/4/6
